<?xml version="1.0" encoding="utf-8"?>
<!-- Generator: Adobe Illustrator 23.0.6, SVG Export Plug-In . SVG Version: 6.00 Build 0)  -->
<svg version="1.1" id="Layer_1" xmlns="http://www.w3.org/2000/svg" xmlns:xlink="http://www.w3.org/1999/xlink" x="0px" y="0px"
	 viewBox="0 0 124.03 132.16" style="enable-background:new 0 0 124.03 132.16;" xml:space="preserve">
<style type="text/css">
	.st0{fill:#C0641A;}
	.st1{fill:#FFFFFF;}
	.st2{fill:#008996;}
</style>
<g>
	<path class="st0" d="M1,1v106.21v1.16v22.79h122.03v-22.79v-1.16V1H1z M3.32,3.32h117.39v102.73H3.32V3.32z"/>
	<g>
		<g>
			<path class="st1" d="M11.92,118.96c0-2.49,1.92-4.32,4.34-4.32c1.53,0,2.62,0.55,3.37,1.72l-1.33,0.94
				c-0.4-0.64-1.08-1.1-2.05-1.1c-1.53,0-2.55,1.18-2.55,2.75c0,1.57,1.03,2.78,2.55,2.78c1.09,0,1.7-0.52,2.17-1.24l1.35,0.93
				c-0.73,1.14-1.9,1.86-3.52,1.86C13.84,123.28,11.92,121.45,11.92,118.96z"/>
			<path class="st1" d="M25.64,114.67h0.15l3.86,8.51h-1.82l-0.4-0.95h-3.42l-0.4,0.95h-1.67L25.64,114.67z M26.81,120.77
				l-0.61-1.46c-0.25-0.6-0.51-1.51-0.51-1.51s-0.25,0.92-0.5,1.51l-0.61,1.46H26.81z"/>
			<path class="st1" d="M32.65,114.65h0.14l4.15,4.56l4.09-4.56h0.15v8.52H39.5v-3.16c0-0.57,0.06-1.48,0.06-1.48
				s-0.51,0.74-0.91,1.19l-1.67,1.87h-0.16l-1.67-1.87c-0.4-0.45-0.91-1.19-0.91-1.19s0.06,0.91,0.06,1.48v3.16h-1.66V114.65z"/>
			<path class="st1" d="M44.8,114.74h2.33c2.36,0,3.77,1.23,3.77,3.26c0,2.03-1.43,3.25-3.77,3.25h-0.6v1.92H44.8V114.74z
				 M47.08,119.73c1.41,0,2.03-0.57,2.03-1.72c0-1.17-0.64-1.74-2.03-1.74h-0.55v3.46H47.08z"/>
			<path class="st1" d="M54.07,120.12v-5.38h1.74v5.28c0,1.23,0.53,1.7,1.69,1.7c1.14,0,1.66-0.47,1.66-1.7v-5.28h1.74v5.38
				c0,2.13-1.48,3.16-3.4,3.16C55.55,123.28,54.07,122.26,54.07,120.12z"/>
			<path class="st1" d="M63.68,121.51l1.41-0.82c0.37,0.61,0.86,1.05,1.71,1.05c0.72,0,1.18-0.36,1.18-0.86
				c0-0.6-0.47-0.81-1.27-1.15l-0.43-0.19c-1.25-0.53-2.08-1.2-2.08-2.62c0-1.3,0.99-2.29,2.54-2.29c1.1,0,1.9,0.38,2.47,1.39
				l-1.35,0.87c-0.3-0.53-0.62-0.74-1.12-0.74c-0.51,0-0.83,0.32-0.83,0.74c0,0.52,0.32,0.73,1.07,1.05l0.43,0.19
				c1.48,0.63,2.31,1.28,2.31,2.73c0,1.56-1.23,2.42-2.88,2.42C65.23,123.28,64.19,122.52,63.68,121.51z"/>
			<path class="st1" d="M74.61,116.27H72.2v-1.53h6.55v1.53h-2.41v6.91h-1.74V116.27z"/>
			<path class="st1" d="M81.1,118.96c0-2.49,1.93-4.33,4.37-4.33c2.43,0,4.36,1.84,4.36,4.33s-1.93,4.33-4.36,4.33
				C83.04,123.28,81.1,121.45,81.1,118.96z M88.05,118.96c0-1.58-1.04-2.78-2.58-2.78c-1.54,0-2.58,1.2-2.58,2.78
				c0,1.57,1.04,2.78,2.58,2.78C87.01,121.73,88.05,120.53,88.05,118.96z"/>
			<path class="st1" d="M92,114.74h1.84l1.23,3.39c0.21,0.58,0.45,1.53,0.45,1.53s0.25-0.96,0.52-1.53l1.62-3.46h0.17l1.65,3.46
				c0.27,0.57,0.52,1.53,0.52,1.53s0.24-0.94,0.45-1.53l1.21-3.39h1.69l-3.06,8.51h-0.17l-1.9-4.07c-0.22-0.47-0.47-1.25-0.47-1.25
				s-0.26,0.78-0.48,1.25l-1.97,4.07h-0.17L92,114.74z"/>
			<path class="st1" d="M108.85,119.25c-0.42-0.4-1-1.15-1-1.15s0.12,0.93,0.12,1.54v3.53h-1.62v-8.51h0.17l4.25,3.99
				c0.41,0.38,0.99,1.15,0.99,1.15s-0.11-0.95-0.11-1.54v-3.53h1.62v8.51h-0.17L108.85,119.25z"/>
		</g>
	</g>
	<g>
		<path class="st2" d="M80.64,43.87H76.2v-1.36h10.41v1.36h-4.44v13.09h-1.53V43.87z"/>
		<path class="st2" d="M89.29,42.51h1.53v8.14h7.74v-8.14h1.53v14.45h-1.53v-4.91h-7.74v4.91h-1.53V42.51z"/>
		<path class="st2" d="M104.04,42.51h8.8v1.36h-7.27v6.78h6.48v1.34h-6.48v3.61h7.57v1.36h-9.1V42.51z"/>
	</g>
	<g>
		<path class="st2" d="M11.89,66.9h8.47c8.47,0,14.51,5.63,14.51,13.78s-6,13.78-14.51,13.78h-8.47V66.9z M20.08,89.47
			c6.12,0,8.92-3.65,8.92-8.79c0-5.15-2.8-8.79-8.92-8.79h-2.51v17.59H20.08z"/>
		<path class="st2" d="M39.65,66.9h18.24v4.98H45.32v8.75h11.06v4.86H45.32v3.97h13.13v4.98h-18.8V66.9z"/>
		<path class="st2" d="M73.81,66.65h0.49l12.6,27.8h-5.96l-1.3-3.12H68.46l-1.3,3.12H61.7L73.81,66.65z M77.62,86.59l-1.99-4.78
			c-0.81-1.95-1.66-4.94-1.66-4.94s-0.81,3-1.62,4.94l-1.99,4.78H77.62z"/>
		<path class="st2" d="M98.82,81.65c-1.38-1.3-3.28-3.77-3.28-3.77s0.41,3.04,0.41,5.03v11.55h-5.31v-27.8h0.57l13.9,13.05
			c1.34,1.26,3.24,3.77,3.24,3.77s-0.36-3.12-0.36-5.03V66.9h5.31v27.8h-0.57L98.82,81.65z"/>
	</g>
</g>
</svg>
