<svg xmlns="http://www.w3.org/2000/svg" xmlns:xlink="http://www.w3.org/1999/xlink" version="1.1" id="Layer_1" x="0px" y="0px" viewBox="0 0 350 95" style="enable-background:new 0 0 350 95;" xml:space="preserve" width="350" height="95">
<style type="text/css">
	.st0{fill:#FFFFFF;}
</style>
<g>
	<g>
		<path class="st0" d="M0,0v95h95V0H0z M32.2,58.7h-3c0-1.1,0-1.8,0-2.2c0-0.4,0-0.6,0-0.6l0,0L29,56.1c-0.3,0.3-0.6,0.7-1.1,1.1    c-0.4,0.4-1,0.7-1.6,1c-0.6,0.3-1.3,0.5-2.1,0.8c-0.8,0.2-1.6,0.3-2.5,0.3c-1.6,0-3-0.3-4.4-0.8c-1.4-0.6-2.6-1.3-3.6-2.3    c-1-1-1.8-2.2-2.5-3.7c-0.6-1.4-0.9-3-0.9-4.6c0-1.6,0.3-3.2,0.9-4.6c0.6-1.4,1.4-2.6,2.5-3.7c1-1,2.3-1.8,3.7-2.3    c1.4-0.6,2.8-0.8,4.4-0.8c2.2,0.1,4.2,0.6,5.9,1.6s3.1,2.4,4,4.2l-3.5,0.9c-0.6-1-1.6-1.8-2.7-2.5c-1.1-0.6-2.4-0.9-3.7-0.9    c-1.1,0-2.1,0.2-3.2,0.6c-0.9,0.4-1.8,0.9-2.5,1.6c-0.7,0.7-1.2,1.6-1.6,2.5c-0.4,0.9-0.6,2-0.6,3.2s0.2,2.3,0.6,3.3    c0.4,0.9,0.9,1.8,1.7,2.5c0.7,0.7,1.6,1.2,2.5,1.6c0.9,0.4,2,0.6,3.2,0.6c1,0,1.9-0.1,2.7-0.4c0.8-0.3,1.5-0.6,2.1-1    c0.6-0.4,1.1-0.8,1.5-1.3c0.4-0.4,0.7-0.9,0.9-1.4v-1.8h-6.4v-2.8h9.4V58.7z M59.1,58.7h-3.4v-8.4c0-1,0-2,0-2.9    c0-0.9,0.1-1.8,0.1-2.5c0-0.7,0-1.3,0.1-1.7v-0.6l0,0L55.6,43c-0.2,0.3-0.3,0.6-0.5,0.9c-0.2,0.3-0.4,0.7-0.6,1.1L54,45.9    l-4.3,7.4h-1.8l-4.3-7.4c-0.2-0.3-0.3-0.6-0.6-0.9c-0.2-0.4-0.4-0.8-0.6-1.1S42,43.2,41.8,43l-0.2-0.4l0,0v0.6c0,0.4,0,1,0,1.7    c0,0.7,0,1.5,0.1,2.5c0,0.9,0,1.9,0,2.9v8.4h-3.4v-22h3.3l5,8.5c0.4,0.8,0.8,1.4,1.1,1.9c0.3,0.5,0.5,0.9,0.6,1.1    c0.2,0.3,0.3,0.4,0.3,0.6l0.1,0.1h0.1l0.1-0.1c0.1-0.1,0.1-0.3,0.3-0.6c0.1-0.3,0.4-0.6,0.6-1.1c0.3-0.5,0.6-1.1,1.1-1.9l5-8.5    h3.3L59.1,58.7z M84,58.7h-3.5V49H69.8v9.7h-3.5v-22h3.5v9.1h10.7v-9.1H84V58.7z"></path>
		<g>
			<g>
				<path class="st0" d="M126.7,43.7h-0.2c-0.8-1.2-1.8-2.2-3.1-2.9c-1.3-0.7-2.7-1-4.3-1c-1.3,0-2.4,0.2-3.5,0.6      c-1.1,0.4-2,1-2.8,1.8c-0.8,0.8-1.4,1.7-1.8,2.8c-0.4,1.1-0.6,2.3-0.6,3.6s0.2,2.5,0.6,3.6c0.4,1.1,1.1,2,1.8,2.8      c0.8,0.8,1.7,1.4,2.8,1.8c1.1,0.4,2.2,0.6,3.5,0.6c1.7,0,3.2-0.4,4.6-1.2s2.5-1.9,3.2-3.3l2.5,0.7c-0.4,0.9-1,1.8-1.7,2.6      c-0.7,0.8-1.5,1.5-2.3,2c-0.9,0.6-1.8,1-2.9,1.3c-1,0.3-2.1,0.4-3.3,0.4c-1.6,0-3-0.3-4.4-0.8c-1.4-0.6-2.6-1.3-3.6-2.3      c-1-1-1.8-2.2-2.5-3.7c-0.6-1.4-0.9-3-0.9-4.6c0-1.6,0.3-3.2,0.9-4.6c0.6-1.4,1.4-2.6,2.5-3.7c1-1,2.3-1.8,3.7-2.3      c1.4-0.6,2.8-0.8,4.4-0.8c1.1,0,2.1,0.1,3.1,0.4c1,0.3,2,0.6,2.8,1.1c0.8,0.5,1.6,1.1,2.3,1.8c0.7,0.7,1.3,1.5,1.8,2.4      L126.7,43.7z"></path>
				<path class="st0" d="M133.2,48.8c0-1.6,0.3-3.2,0.9-4.6c0.6-1.4,1.4-2.6,2.5-3.7c1-1,2.3-1.8,3.7-2.3c1.4-0.6,2.8-0.8,4.4-0.8      c1.6,0,3,0.3,4.4,0.8c1.4,0.6,2.6,1.3,3.7,2.3c1,1,1.8,2.2,2.5,3.6c0.6,1.4,0.9,3,0.9,4.6s-0.3,3.2-0.9,4.6      c-0.6,1.4-1.4,2.6-2.5,3.6c-1,1-2.3,1.8-3.7,2.3c-1.4,0.5-2.8,0.8-4.4,0.8c-1.6,0-3-0.3-4.4-0.8c-1.4-0.6-2.6-1.3-3.6-2.3      c-1-1-1.8-2.2-2.5-3.7c-0.6-1.4-0.9-3-0.9-4.6L133.2,48.8z M135.9,48.8c0,1.3,0.2,2.5,0.6,3.6c0.4,1.1,1.1,2,1.8,2.8      c0.8,0.8,1.7,1.4,2.8,1.8c1.1,0.4,2.2,0.6,3.5,0.6c1.2,0,2.4-0.2,3.5-0.6c1.1-0.4,2-1,2.8-1.8c0.8-0.8,1.4-1.7,1.8-2.8      c0.4-1.1,0.6-2.3,0.6-3.7c0-1.3-0.2-2.6-0.6-3.7c-0.4-1.1-1.1-2-1.8-2.8c-0.8-0.8-1.7-1.4-2.8-1.8c-1.1-0.4-2.2-0.6-3.5-0.6      s-2.4,0.2-3.5,0.6c-1.1,0.4-2,1-2.8,1.8c-0.8,0.8-1.4,1.7-1.8,2.8C136.1,46.1,135.9,47.4,135.9,48.8L135.9,48.8z"></path>
				<path class="st0" d="M182.4,37.7v22.1h-2.5V50c0-0.8,0-1.7,0-2.6c0-0.9,0.1-1.8,0.1-2.5c0-0.8,0-1.4,0-1.9v-0.8l0,0l-0.2,0.3      c-0.1,0.2-0.3,0.5-0.4,0.8s-0.4,0.7-0.6,1.1c-0.2,0.4-0.4,0.7-0.6,1.1l-5.1,8.9h-1.3l-5.1-8.9c-0.2-0.3-0.4-0.7-0.6-1.1      c-0.2-0.4-0.4-0.8-0.6-1.1c-0.2-0.3-0.3-0.6-0.4-0.8l-0.2-0.3l0,0v0.7c0,0.5,0,1.1,0,1.9c0,0.8,0,1.6,0.1,2.5c0,0.9,0,1.8,0,2.6      v9.9h-2.5V37.7h2.4l5.5,9.3c0.4,0.8,0.8,1.5,1.1,2c0.3,0.5,0.5,0.9,0.6,1.3c0.1,0.3,0.3,0.5,0.3,0.6l0.1,0.2l0,0l0.1-0.2      c0.1-0.1,0.2-0.3,0.3-0.6c0.1-0.3,0.4-0.7,0.6-1.3c0.3-0.5,0.6-1.2,1.1-2l5.5-9.3H182.4z"></path>
				<path class="st0" d="M210.2,37.7v22.1h-2.5V50c0-0.8,0-1.7,0-2.6c0-0.9,0.1-1.8,0.1-2.5c0-0.8,0-1.4,0-1.9v-0.8l0,0l-0.2,0.3      c-0.1,0.2-0.3,0.5-0.4,0.8s-0.4,0.7-0.6,1.1c-0.2,0.4-0.4,0.7-0.6,1.1l-5.1,8.9h-1.3l-5.1-8.9c-0.2-0.3-0.4-0.7-0.6-1.1      c-0.2-0.4-0.4-0.8-0.6-1.1c-0.2-0.3-0.3-0.6-0.4-0.8l-0.2-0.3l0,0v0.7c0,0.5,0,1.1,0,1.9c0,0.8,0,1.6,0.1,2.5c0,0.9,0,1.8,0,2.6      v9.9H190V37.7h2.4l5.5,9.3c0.4,0.8,0.8,1.5,1.1,2c0.3,0.5,0.5,0.9,0.6,1.3c0.1,0.3,0.3,0.5,0.3,0.6l0.1,0.2l0,0l0.1-0.2      c0.1-0.1,0.2-0.3,0.3-0.6s0.4-0.7,0.6-1.3c0.3-0.5,0.6-1.2,1.1-2l5.5-9.3H210.2z"></path>
				<path class="st0" d="M235,37.7v12.9c0,3.1-0.8,5.5-2.3,7.1c-1.6,1.6-3.8,2.4-6.7,2.4s-5.1-0.8-6.7-2.4c-1.6-1.6-2.3-4-2.3-7.1      V37.7h2.6v12.9c0,4.7,2.1,7.1,6.4,7.1s6.5-2.4,6.5-7.1V37.7H235z"></path>
				<path class="st0" d="M259.9,37.7v22h-2.4l-9.8-13.1c-0.4-0.6-0.9-1.3-1.3-1.8c-0.4-0.6-0.8-1.1-1-1.5c-0.3-0.4-0.5-0.7-0.6-0.9      l-0.3-0.4l0,0v0.4c0,0.3,0,0.8,0,1.3c0,0.6,0,1.2,0,2c0,0.8,0,1.6,0,2.5v11.5h-2.6v-22h2.4l9.8,13.1c0.4,0.6,0.8,1.1,1.2,1.6      c0.4,0.5,0.7,1,1,1.5c0.3,0.4,0.6,0.8,0.8,1l0.3,0.4l0,0v-0.5c0-0.3,0-0.8,0-1.3c0-0.6,0-1.2,0-2c0-0.7,0-1.5,0-2.3V37.7H259.9z      "></path>
				<path class="st0" d="M267.3,59.7V37.7h2.6v22L267.3,59.7L267.3,59.7z"></path>
				<path class="st0" d="M292.3,37.7v2.4H285v19.6h-2.5V40.1h-7.4v-2.4H292.3z"></path>
				<path class="st0" d="M297.5,59.7V37.7h2.6v22L297.5,59.7L297.5,59.7z"></path>
				<path class="st0" d="M322.4,57.3v2.4h-14.9V37.7h14.7v2.4h-12.1v6.8h9.7v2.3h-9.7v8.1C310.1,57.3,322.4,57.3,322.4,57.3z"></path>
				<path class="st0" d="M340.7,43.8l-0.3,0.1c-0.1-0.6-0.3-1.3-0.6-1.8c-0.3-0.5-0.7-0.9-1.2-1.3c-0.5-0.4-1-0.6-1.6-0.8      c-0.6-0.2-1.3-0.3-2-0.3c-1.5,0-2.6,0.3-3.5,0.9c-0.9,0.6-1.4,1.5-1.4,2.6c0,0.6,0.2,1.1,0.5,1.5c0.3,0.4,0.8,0.8,1.4,1      c0.6,0.3,1.2,0.5,1.9,0.8c0.7,0.2,1.5,0.4,2.1,0.6c0.8,0.2,1.6,0.5,2.5,0.8c0.8,0.3,1.6,0.7,2.3,1.2s1.3,1.1,1.8,1.8      c0.4,0.7,0.7,1.6,0.7,2.7c0,0.9-0.2,1.8-0.6,2.5c-0.4,0.8-0.9,1.5-1.6,2c-0.7,0.6-1.5,1-2.5,1.3c-0.9,0.3-2.1,0.4-3.3,0.4      c-1.1,0-2.2-0.1-3.2-0.4c-0.9-0.3-1.8-0.8-2.5-1.3c-0.7-0.6-1.3-1.3-1.7-2c-0.4-0.8-0.8-1.6-0.9-2.5l2.5-0.6      c0.1,0.6,0.3,1.2,0.6,1.8c0.3,0.6,0.7,1.1,1.2,1.5c0.5,0.4,1.1,0.8,1.8,1c0.7,0.3,1.5,0.4,2.4,0.4c1.6,0,2.9-0.4,3.8-1.1      c0.9-0.8,1.4-1.7,1.4-2.9c0-0.8-0.2-1.5-0.6-2c-0.4-0.5-0.9-0.9-1.6-1.3c-0.6-0.3-1.4-0.6-2.2-0.8c-0.8-0.2-1.6-0.4-2.4-0.7      c-0.6-0.2-1.3-0.4-2-0.7c-0.7-0.3-1.4-0.6-2-1c-0.6-0.4-1.1-0.9-1.5-1.6c-0.4-0.6-0.6-1.5-0.6-2.4c0-0.8,0.2-1.6,0.6-2.3      s0.9-1.3,1.6-1.9c0.6-0.5,1.5-0.9,2.4-1.3s2-0.4,3.1-0.4c1,0,2,0.1,2.8,0.4c0.9,0.3,1.6,0.7,2.3,1.2c0.7,0.5,1.3,1.1,1.7,1.8      s0.8,1.5,0.9,2.4L340.7,43.8z"></path>
			</g>
		</g>
	</g>
	<g>
		<path class="st0" d="M345,29v0.6h-1.3v3.2h-0.8v-3.2h-1.3V29H345z M349.1,32.9l-0.1-2.3c0-0.3,0-0.7,0-1.1h-0.1    c-0.1,0.3-0.2,0.8-0.3,1.1l-0.7,2.1h-0.8l-0.7-2.2c-0.1-0.3-0.2-0.8-0.3-1.1h-0.1c0,0.4,0,0.8,0,1.1l-0.1,2.3h-0.8l0.3-3.9h1.1    l0.7,1.9c0.1,0.3,0.1,0.6,0.3,1l0,0c0.1-0.4,0.2-0.7,0.3-0.9l0.7-1.9h1.1L350,33L349.1,32.9L349.1,32.9z"></path>
	</g>
</g>
</svg>
