<svg version="1.1" id="RESIDENTIALLayer_1" xmlns="http://www.w3.org/2000/svg" xmlns:xlink="http://www.w3.org/1999/xlink" x="0px" y="0px" viewBox="0 0 109.71 32.09" style="enable-background:new 0 0 109.71 32.09;" xml:space="preserve" width="304"  height="89" >
<style type="text/css">
	.residential-0{clip-path:url(#RESIDENTIALSVGID_2_);fill:#FFFFFF;}
</style>
<g>
	<defs>
		<rect id="RESIDENTIALSVGID_1_" y="0" width="109.71" height="32.09"></rect>
	<rect id="RESIDENTIALSVGID_1_" y="0" width="109.71" height="32.09"></rect></defs>
	<clipPath id="RESIDENTIALSVGID_2_">
		<use xlink:href="#RESIDENTIALSVGID_1_" style="overflow:visible;"></use>
	</clipPath>
	<path class="residential-0" d="M0,32.09h32.09V0H0V32.09z M10.86,19.81H9.84v-0.74v-0.2H9.83l-0.05,0.09c-0.1,0.12-0.22,0.23-0.38,0.36
		c-0.16,0.13-0.34,0.24-0.55,0.35c-0.21,0.11-0.45,0.18-0.71,0.26c-0.27,0.08-0.54,0.11-0.84,0.11c-0.53,0-1.03-0.1-1.5-0.28
		c-0.47-0.19-0.87-0.46-1.22-0.8c-0.35-0.34-0.63-0.75-0.83-1.23c-0.2-0.48-0.3-1-0.3-1.56s0.11-1.08,0.31-1.56
		c0.2-0.48,0.48-0.89,0.83-1.23c0.35-0.34,0.76-0.6,1.23-0.8c0.47-0.19,0.97-0.29,1.5-0.29c0.75,0.01,1.42,0.19,2.01,0.54
		c0.58,0.35,1.04,0.82,1.37,1.4l-1.2,0.32c-0.22-0.35-0.53-0.63-0.92-0.83c-0.39-0.2-0.81-0.3-1.25-0.3c-0.38,0-0.73,0.06-1.06,0.19
		c-0.33,0.13-0.61,0.31-0.84,0.55C5.18,14.41,5,14.69,4.87,15.02c-0.13,0.33-0.19,0.69-0.19,1.09c0,0.42,0.07,0.79,0.21,1.12
		c0.14,0.33,0.33,0.62,0.57,0.85c0.24,0.23,0.53,0.41,0.86,0.54c0.33,0.13,0.69,0.19,1.07,0.19c0.34,0,0.65-0.04,0.92-0.13
		s0.52-0.2,0.72-0.34c0.2-0.14,0.37-0.29,0.51-0.45c0.14-0.16,0.23-0.32,0.3-0.47v-0.63H7.68v-0.97h3.17V19.81z M19.97,19.8h-1.16
		v-2.83c0-0.34,0-0.67,0.01-0.99c0.01-0.32,0.02-0.59,0.03-0.84c0.01-0.25,0.01-0.44,0.02-0.58l0.01-0.22h-0.01l-0.07,0.13
		c-0.05,0.09-0.12,0.19-0.18,0.31c-0.06,0.12-0.14,0.24-0.21,0.37l-0.18,0.32l-1.44,2.5h-0.62l-1.44-2.5
		c-0.05-0.08-0.12-0.19-0.19-0.32c-0.07-0.13-0.15-0.26-0.22-0.37c-0.07-0.12-0.14-0.22-0.19-0.31l-0.07-0.13h-0.01l0.01,0.21
		c0.01,0.15,0,0.34,0,0.58c0,0.24,0.01,0.52,0.02,0.84c0.01,0.32,0.01,0.65,0.01,0.99v2.84h-1.16v-7.43h1.1l1.69,2.85
		c0.15,0.25,0.29,0.47,0.38,0.64c0.09,0.17,0.17,0.3,0.22,0.39c0.05,0.1,0.09,0.16,0.12,0.19l0.03,0.05h0.01l0.03-0.05
		c0.02-0.03,0.05-0.09,0.11-0.19c0.05-0.1,0.13-0.22,0.22-0.39c0.1-0.17,0.22-0.38,0.37-0.64l1.69-2.85H20L19.97,19.8z M28.39,19.8
		h-1.18v-3.26h-3.63v3.26H22.4v-7.43h1.18v3.08h3.63v-3.08h1.18V19.8z" fill="#FFFFFF"></path>
	<path class="residential-0" d="M41.3,14.43l-1.69-2.77c-0.05,0.01-0.12,0.01-0.18,0.01h-0.19h-1.39v2.76h-0.87V7h2.26
		c0.88,0,1.56,0.21,2.05,0.64c0.49,0.43,0.73,1,0.73,1.72c0,0.53-0.14,0.98-0.4,1.34c-0.27,0.36-0.65,0.63-1.15,0.79l1.81,2.94H41.3
		z M39.32,10.88l0.01,0.01c0.61,0,1.06-0.15,1.36-0.44c0.3-0.29,0.45-0.66,0.45-1.1c0-0.48-0.16-0.85-0.48-1.12
		c-0.32-0.28-0.76-0.41-1.34-0.41h-1.48v3.07H39.32z" fill="#FFFFFF"></path>
	<polygon class="residential-0" points="49.29,13.61 49.29,14.43 44.27,14.43 44.27,6.99 49.22,6.99 49.22,7.81 45.14,7.81 45.14,10.1 
		48.42,10.1 48.42,10.88 45.14,10.88 45.14,13.61 	" fill="#FFFFFF"></polygon>
	<path class="residential-0" d="M55.47,9.05L55.36,9.1c-0.04-0.22-0.12-0.43-0.22-0.6c-0.11-0.18-0.24-0.33-0.42-0.46
		c-0.17-0.13-0.35-0.22-0.55-0.29c-0.2-0.06-0.42-0.09-0.66-0.09c-0.49,0-0.89,0.11-1.2,0.32c-0.31,0.21-0.47,0.51-0.47,0.88
		c0,0.2,0.06,0.37,0.18,0.51s0.28,0.25,0.47,0.35c0.19,0.1,0.4,0.18,0.65,0.25c0.24,0.07,0.49,0.15,0.73,0.22
		c0.26,0.07,0.54,0.17,0.83,0.27c0.29,0.11,0.55,0.24,0.8,0.42c0.24,0.17,0.45,0.37,0.6,0.61c0.16,0.24,0.24,0.55,0.24,0.91
		c0,0.31-0.06,0.59-0.19,0.86c-0.13,0.26-0.31,0.49-0.54,0.68c-0.23,0.19-0.52,0.34-0.85,0.45c-0.33,0.09-0.7,0.15-1.12,0.15
		c-0.39,0-0.75-0.05-1.08-0.15c-0.33-0.11-0.61-0.26-0.84-0.45c-0.23-0.19-0.42-0.42-0.58-0.69c-0.16-0.27-0.26-0.55-0.32-0.86
		l0.84-0.22c0.03,0.21,0.1,0.41,0.19,0.62c0.09,0.2,0.23,0.37,0.4,0.52c0.17,0.15,0.37,0.26,0.61,0.35
		c0.23,0.08,0.51,0.13,0.82,0.13c0.55,0,0.99-0.13,1.31-0.38c0.32-0.25,0.48-0.58,0.48-0.98c0-0.27-0.08-0.49-0.22-0.66
		c-0.15-0.17-0.33-0.32-0.55-0.44c-0.22-0.12-0.48-0.21-0.75-0.29c-0.28-0.07-0.54-0.16-0.81-0.24c-0.21-0.06-0.44-0.14-0.68-0.23
		c-0.24-0.1-0.47-0.21-0.68-0.35c-0.21-0.14-0.38-0.32-0.52-0.54c-0.14-0.22-0.2-0.49-0.2-0.81c0-0.29,0.06-0.55,0.19-0.8
		c0.13-0.24,0.31-0.46,0.53-0.64c0.22-0.18,0.5-0.32,0.82-0.43c0.32-0.11,0.67-0.16,1.04-0.16c0.34,0,0.66,0.04,0.96,0.14
		c0.3,0.1,0.56,0.23,0.8,0.4c0.23,0.17,0.42,0.38,0.58,0.63s0.27,0.51,0.33,0.81L55.47,9.05z" fill="#FFFFFF"></path>
	<rect x="58.33" y="6.99" class="residential-0" width="0.87" height="7.43" fill="#FFFFFF"></rect>
	<path class="residential-0" d="M64.82,6.99L64.8,7.03c0.53,0,1.03,0.1,1.5,0.27c0.47,0.18,0.87,0.44,1.22,0.77c0.35,0.33,0.63,0.72,0.83,1.18
		c0.2,0.46,0.31,0.97,0.31,1.53c0,0.55-0.1,1.05-0.3,1.5c-0.2,0.45-0.47,0.83-0.81,1.15c-0.34,0.32-0.74,0.56-1.2,0.74
		c-0.46,0.18-0.94,0.26-1.46,0.26h-3.2V6.99H64.82z M64.91,13.61h-0.02c0.39,0,0.76-0.06,1.11-0.19c0.35-0.13,0.66-0.32,0.92-0.56
		c0.26-0.24,0.48-0.54,0.64-0.89c0.16-0.35,0.23-0.75,0.23-1.2c0-0.46-0.08-0.86-0.23-1.22c-0.16-0.36-0.37-0.67-0.64-0.92
		c-0.27-0.25-0.57-0.46-0.94-0.59c-0.36-0.14-0.74-0.21-1.15-0.21h-2.26v5.8H64.91z" fill="#FFFFFF"></path>
	<polygon class="residential-0" points="75.69,13.61 75.69,14.43 70.67,14.43 70.67,6.99 75.63,6.99 75.63,7.81 71.54,7.81 71.54,10.1 
		74.82,10.1 74.82,10.88 71.54,10.88 71.54,13.61 	" fill="#FFFFFF"></polygon>
	<path class="residential-0" d="M83.98,6.99v7.44h-0.82L79.86,10c-0.16-0.22-0.31-0.42-0.45-0.62c-0.14-0.19-0.26-0.36-0.35-0.5
		c-0.1-0.14-0.17-0.24-0.22-0.33l-0.08-0.13h-0.01v0.16v0.45V9.7v0.83v3.9h-0.87V6.99h0.82l3.3,4.44c0.14,0.19,0.28,0.37,0.4,0.55
		c0.13,0.18,0.24,0.34,0.35,0.49c0.11,0.15,0.19,0.26,0.25,0.35l0.1,0.13h0.01v-0.17v-0.46v-0.66V10.9V6.99H83.98z" fill="#FFFFFF"></path>
	<polygon class="residential-0" points="91.57,6.99 91.57,7.81 89.07,7.81 89.07,14.43 88.21,14.43 88.21,7.81 85.73,7.81 85.73,6.99 	" fill="#FFFFFF"></polygon>
	<rect x="93.32" y="6.99" class="residential-0" width="0.87" height="7.43" fill="#FFFFFF"></rect>
	<path class="residential-0" d="M101.39,12.48h-3.73l-0.83,1.94H95.9l3.23-7.43h0.8l3.23,7.43h-0.93L101.39,12.48z M101.06,11.71l-1.18-2.76
		c-0.04-0.09-0.09-0.19-0.13-0.3c-0.04-0.1-0.07-0.2-0.11-0.3c-0.03-0.1-0.06-0.17-0.08-0.22l-0.03-0.09h-0.01l-0.03,0.09
		c-0.02,0.05-0.05,0.13-0.08,0.22c-0.03,0.1-0.06,0.19-0.11,0.3c-0.04,0.11-0.09,0.2-0.13,0.3l-1.18,2.76H101.06z" fill="#FFFFFF"></path>
	<polygon class="residential-0" points="109.71,13.61 109.71,14.43 104.86,14.43 104.86,6.99 105.73,6.99 105.73,13.61 	" fill="#FFFFFF"></polygon>
	<polygon class="residential-0" points="41.82,25.08 41.82,25.89 36.97,25.89 36.97,18.46 37.84,18.46 37.84,25.08 	" fill="#FFFFFF"></polygon>
	<rect x="43.55" y="18.46" class="residential-0" width="0.87" height="7.43" fill="#FFFFFF"></rect>
	<path class="residential-0" d="M53.37,18.46l-3.2,7.43h-0.88l-3.17-7.42h0.94l2.24,5.32c0.05,0.14,0.11,0.28,0.16,0.41
		c0.05,0.14,0.09,0.25,0.14,0.36c0.04,0.11,0.07,0.19,0.1,0.26l0.04,0.1h0.01l0.04-0.11c0.02-0.06,0.06-0.15,0.11-0.25
		c0.04-0.11,0.09-0.23,0.14-0.37l0.15-0.4l2.25-5.32H53.37z" fill="#FFFFFF"></path>
	<rect x="55.08" y="18.46" class="residential-0" width="0.87" height="7.43" fill="#FFFFFF"></rect>
	<path class="residential-0" d="M64.56,18.46v7.44h-0.82l-3.3-4.44c-0.16-0.22-0.31-0.42-0.45-0.62c-0.14-0.19-0.26-0.36-0.35-0.5
		c-0.1-0.14-0.17-0.25-0.22-0.33l-0.08-0.13h-0.01v0.16v0.45v0.67V22v3.9h-0.87v-7.43h0.82l3.3,4.44c0.14,0.19,0.28,0.37,0.4,0.55
		c0.13,0.18,0.24,0.34,0.35,0.49c0.11,0.15,0.19,0.27,0.26,0.35l0.1,0.13h0.01v-0.17v-0.46v-0.66v-0.76v-3.91H64.56z" fill="#FFFFFF"></path>
	<path class="residential-0" d="M73.11,24.79l-0.01,0.02c-0.08,0.11-0.21,0.23-0.37,0.38c-0.16,0.15-0.35,0.29-0.57,0.41
		c-0.22,0.13-0.48,0.23-0.78,0.31c-0.3,0.08-0.63,0.13-0.99,0.13c-0.53,0-1.03-0.1-1.5-0.27c-0.47-0.19-0.87-0.46-1.22-0.8
		c-0.35-0.34-0.63-0.75-0.83-1.23c-0.2-0.48-0.3-1-0.3-1.56c0-0.56,0.11-1.08,0.31-1.56c0.2-0.48,0.48-0.89,0.83-1.23
		s0.76-0.6,1.23-0.8c0.47-0.19,0.97-0.29,1.5-0.29c0.78,0.01,1.44,0.19,2.02,0.54c0.57,0.35,1.03,0.82,1.36,1.4l-0.88,0.22
		c-0.25-0.41-0.61-0.74-1.05-0.98c-0.45-0.23-0.92-0.35-1.44-0.35c-0.42,0-0.82,0.08-1.18,0.22c-0.36,0.15-0.67,0.35-0.93,0.62
		c-0.27,0.27-0.47,0.58-0.62,0.96s-0.22,0.77-0.22,1.22c0,0.46,0.07,0.87,0.22,1.24c0.15,0.37,0.36,0.69,0.63,0.96
		c0.26,0.27,0.58,0.47,0.94,0.62c0.36,0.15,0.75,0.22,1.18,0.22c0.36,0,0.69-0.05,0.99-0.15c0.3-0.1,0.56-0.22,0.79-0.37
		c0.22-0.15,0.41-0.31,0.57-0.48c0.16-0.17,0.28-0.34,0.35-0.5v-0.92h-2.27v-0.72h3.03v3.84h-0.76v-0.53v-0.34v-0.18L73.11,24.79
		L73.11,24.79z" fill="#FFFFFF"></path>
</g>
</svg>