<svg xmlns="http://www.w3.org/2000/svg" xmlns:xlink="http://www.w3.org/1999/xlink" version="1.0" id="Layer_1" x="0px" y="0px" viewBox="0 0 334.7 266.6" style="enable-background:new 0 0 334.7 266.6;" xml:space="preserve" width="334.7" height="266.6">
<style type="text/css">
	.st0{fill:#0E2B4C;}
	.st1{fill:#FFFFFF;}
	.st2{fill:#1ABEE9;}
</style>
<rect class="st0" width="266.6" height="266.6"></rect>
<g>
	<g>
		<path class="st1" d="M81.7,156.8l-0.4,0.7c-0.8,1-1.9,1.9-3.2,3c-1.3,1.1-2.8,2-4.6,2.9c-1.8,0.9-3.7,1.5-5.9,2.1    c-2.2,0.6-4.5,0.9-7,0.9c-4.4,0-8.6-0.8-12.4-2.3c-3.9-1.6-7.2-3.8-10.1-6.6c-2.9-2.8-5.2-6.3-6.9-10.2c-1.7-4-2.5-8.3-2.5-13    c0-4.7,0.9-9,2.6-13c1.7-4,4-7.4,6.9-10.2s6.4-5,10.2-6.6c3.9-1.6,8-2.4,12.4-2.4c6.3,0.1,11.8,1.6,16.7,4.5    c4.9,2.9,8.6,6.8,11.4,11.6l-10,2.6c-1.9-2.9-4.4-5.2-7.7-6.9c-3.3-1.7-6.7-2.5-10.4-2.5c-3.2,0-6.1,0.5-8.8,1.6    c-2.7,1.1-5,2.6-7,4.6s-3.4,4.4-4.5,7.1c-1.1,2.7-1.6,5.7-1.6,9.1c0,3.4,0.6,6.5,1.8,9.3c1.1,2.7,2.7,5.1,4.8,7.1    c2,1.9,4.4,3.4,7.1,4.5c2.7,1.1,5.7,1.6,8.9,1.6c2.8,0,5.4-0.4,7.7-1.1c2.3-0.7,4.3-1.7,6-2.8c1.7-1.1,3.1-2.4,4.2-3.7    c1.1-1.3,1.9-2.6,2.5-3.9v-5.2h-18v-8h26.4v33h-8.5c0-3,0-5.1,0-6.2C81.7,157.4,81.7,156.9,81.7,156.8L81.7,156.8z"></path>
		<path class="st1" d="M166.2,102.8l-0.3,61.8h-9.6v-23.5c0-2.8,0-5.6,0.1-8.2c0.1-2.6,0.2-4.9,0.3-7c0.1-2,0.1-3.6,0.2-4.9l0.1-1.9    h-0.1l-0.6,1.1c-0.4,0.7-1,1.6-1.5,2.6c-0.5,1-1.1,2-1.8,3.1l-1.5,2.6l-12,20.7h-5.1l-12-20.7c-0.4-0.7-1-1.6-1.6-2.6    c-0.6-1.1-1.2-2.1-1.9-3.1c-0.6-1-1.1-1.9-1.6-2.6l-0.6-1.1h-0.1l0.1,1.8c0.1,1.2,0,2.8,0,4.9c0,2,0.1,4.3,0.2,7    c0.1,2.6,0.1,5.4,0.1,8.2v23.6h-9.6v-61.8h9.2l14,23.6c1.2,2.1,2.4,3.9,3.2,5.3c0.8,1.4,1.4,2.5,1.9,3.3c0.4,0.8,0.8,1.3,1,1.6    l0.3,0.4h0.1l0.3-0.4c0.2-0.3,0.4-0.8,0.9-1.6c0.4-0.8,1.1-1.9,1.9-3.3c0.8-1.4,1.9-3.2,3.1-5.3l14-23.6H166.2z"></path>
		<path class="st1" d="M235.8,102.8v61.8h-9.8v-27.1h-30.2v27.1h-9.8v-61.8h9.8v25.6h30.2v-25.6H235.8z"></path>
	</g>
</g>
<rect x="181.4" y="184.5" class="st2" width="153.3" height="67.9"></rect>
<g>
	<g>
		<path class="st1" d="M249.7,236.6l-0.4,0.6c-0.6,0.8-1.5,1.6-2.6,2.4c-1.1,0.9-2.3,1.6-3.7,2.4c-1.4,0.7-3,1.2-4.8,1.7    c-1.8,0.5-3.7,0.7-5.7,0.7c-3.6,0-6.9-0.6-10.1-1.9c-3.2-1.3-5.9-3.1-8.2-5.4s-4.2-5.1-5.6-8.3c-1.4-3.2-2-6.7-2-10.5    c0-3.8,0.7-7.3,2.1-10.5c1.4-3.2,3.2-6,5.6-8.3c2.4-2.3,5.2-4.1,8.3-5.4c3.2-1.3,6.5-1.9,10.1-1.9c5.1,0.1,9.6,1.3,13.5,3.7    c3.9,2.4,7,5.5,9.2,9.5l-8.1,2.1c-1.5-2.4-3.6-4.2-6.2-5.6c-2.6-1.4-5.4-2-8.4-2c-2.6,0-4.9,0.4-7.2,1.3c-2.2,0.9-4.1,2.1-5.7,3.7    c-1.6,1.6-2.8,3.6-3.7,5.8c-0.9,2.2-1.3,4.7-1.3,7.4c0,2.8,0.5,5.3,1.4,7.5c0.9,2.2,2.2,4.2,3.9,5.7c1.6,1.6,3.6,2.8,5.8,3.7    s4.7,1.3,7.2,1.3c2.3,0,4.4-0.3,6.2-0.9c1.9-0.6,3.5-1.4,4.9-2.3c1.4-0.9,2.5-1.9,3.4-3c0.9-1.1,1.6-2.1,2-3.2v-4.2h-14.6v-6.5    h21.4V243h-6.9c0-2.4,0-4.2,0-5S249.8,236.7,249.7,236.6L249.7,236.6z"></path>
		<path class="st1" d="M263.6,218.1c0-3.8,0.7-7.3,2.1-10.5c1.4-3.2,3.2-6,5.6-8.3c2.4-2.3,5.2-4.1,8.3-5.4    c3.2-1.3,6.5-1.9,10.1-1.9c3.6,0,6.9,0.6,10.1,1.9s5.9,3.1,8.3,5.4c2.4,2.3,4.2,5,5.6,8.2c1.4,3.2,2.1,6.7,2.1,10.5    c0,3.8-0.6,7.3-2,10.5c-1.4,3.2-3.2,5.9-5.6,8.2s-5.2,4.1-8.3,5.4c-3.2,1.2-6.5,1.9-10.1,1.9c-3.6,0-6.9-0.6-10.1-1.9    c-3.1-1.3-5.9-3.1-8.2-5.4c-2.4-2.3-4.2-5.1-5.6-8.3c-1.4-3.2-2-6.7-2-10.5L263.6,218.1z M272,218c0,2.7,0.4,5.2,1.3,7.4    c0.9,2.2,2.1,4.2,3.7,5.8c1.6,1.6,3.4,2.9,5.6,3.7c2.1,0.9,4.5,1.3,7.1,1.3c2.6,0,4.9-0.4,7.1-1.3s4-2.1,5.6-3.8    c1.6-1.6,2.8-3.6,3.7-5.8c0.9-2.2,1.4-4.7,1.4-7.4c0-2.7-0.4-5.2-1.4-7.4c-0.9-2.2-2.1-4.2-3.7-5.7c-1.6-1.6-3.4-2.8-5.6-3.7    s-4.5-1.3-7.1-1.3c-2.6,0-4.9,0.4-7.1,1.3c-2.1,0.9-4,2.1-5.6,3.7c-1.6,1.6-2.8,3.5-3.7,5.7c-0.9,2.2-1.3,4.7-1.3,7.4V218z"></path>
	</g>
</g>
</svg>
