<svg version="1.1" id="INNOVLayer_1" xmlns="http://www.w3.org/2000/svg" xmlns:xlink="http://www.w3.org/1999/xlink" x="0px" y="0px" viewBox="0 0 106.43 32.09" style="enable-background:new 0 0 106.43 32.09;" xml:space="preserve" width="295"  height="89" >
<style type="text/css">
	.innovative-0{clip-path:url(#INNOVSVGID_2_);fill:#FFFFFF;}
</style>
<g>
	<defs>
		<rect id="INNOVSVGID_1_" y="0" width="106.43" height="32.09"></rect>
	<rect id="INNOVSVGID_1_" y="0" width="106.43" height="32.09"></rect></defs>
	<clipPath id="INNOVSVGID_2_">
		<use xlink:href="#INNOVSVGID_1_" style="overflow:visible;"></use>
	</clipPath>
	<path class="innovative-0" d="M0,32.09h32.09V0H0V32.09z M10.86,19.81H9.84v-0.74v-0.2H9.83l-0.05,0.09c-0.1,0.12-0.22,0.23-0.38,0.36
		c-0.16,0.13-0.34,0.24-0.55,0.35c-0.21,0.11-0.45,0.18-0.71,0.26c-0.27,0.07-0.54,0.11-0.84,0.11c-0.53,0-1.03-0.1-1.5-0.28
		c-0.47-0.19-0.87-0.46-1.22-0.8c-0.35-0.34-0.63-0.75-0.83-1.23c-0.2-0.48-0.3-1-0.3-1.56c0-0.56,0.11-1.08,0.31-1.56
		c0.2-0.48,0.48-0.89,0.83-1.23c0.35-0.34,0.76-0.6,1.23-0.8c0.47-0.19,0.97-0.29,1.5-0.29c0.75,0.01,1.42,0.19,2.01,0.54
		c0.58,0.35,1.04,0.82,1.37,1.4l-1.2,0.32c-0.22-0.35-0.53-0.63-0.92-0.83c-0.39-0.2-0.81-0.3-1.25-0.3c-0.38,0-0.73,0.06-1.06,0.19
		c-0.33,0.13-0.61,0.31-0.84,0.55S5,14.7,4.87,15.02c-0.13,0.33-0.19,0.69-0.19,1.09c0,0.41,0.07,0.79,0.21,1.12
		c0.14,0.33,0.33,0.62,0.57,0.85c0.24,0.23,0.53,0.41,0.86,0.54c0.33,0.13,0.69,0.19,1.07,0.19c0.34,0,0.65-0.04,0.92-0.13
		c0.28-0.09,0.52-0.2,0.72-0.34c0.2-0.14,0.37-0.29,0.51-0.45c0.14-0.16,0.23-0.32,0.3-0.47v-0.63H7.68v-0.97h3.17V19.81z
		 M19.97,19.8h-1.16v-2.83c0-0.34,0-0.67,0.01-0.99c0.01-0.32,0.02-0.59,0.03-0.84c0.01-0.24,0.01-0.44,0.02-0.58l0.01-0.22h-0.01
		l-0.07,0.13c-0.05,0.08-0.12,0.19-0.18,0.31c-0.06,0.12-0.14,0.25-0.21,0.37l-0.18,0.32l-1.44,2.5h-0.62l-1.44-2.5
		c-0.05-0.09-0.12-0.19-0.19-0.32c-0.07-0.13-0.15-0.25-0.22-0.37c-0.07-0.12-0.14-0.22-0.19-0.31l-0.07-0.13h-0.01l0.01,0.21
		c0.01,0.15,0,0.34,0,0.58s0.01,0.52,0.02,0.84c0.01,0.32,0.01,0.65,0.01,0.99v2.84h-1.16v-7.43h1.1l1.69,2.85
		c0.15,0.25,0.29,0.47,0.38,0.64c0.09,0.17,0.17,0.3,0.22,0.39c0.05,0.1,0.09,0.16,0.12,0.19l0.03,0.05h0.01l0.03-0.05
		c0.02-0.03,0.05-0.1,0.11-0.19c0.05-0.09,0.13-0.22,0.22-0.39c0.1-0.17,0.22-0.38,0.37-0.64l1.69-2.85H20L19.97,19.8z M28.39,19.8
		h-1.18v-3.26h-3.63v3.26H22.4v-7.43h1.18v3.08h3.63v-3.08h1.18V19.8z" fill="#FFFFFF"></path>
	<rect x="36.97" y="6.88" class="innovative-0" width="0.87" height="7.43" fill="#FFFFFF"></rect>
	<path class="innovative-0" d="M46.44,6.88v7.44h-0.82l-3.3-4.44c-0.16-0.22-0.31-0.42-0.44-0.61c-0.14-0.19-0.26-0.36-0.35-0.5
		c-0.1-0.14-0.17-0.24-0.22-0.33l-0.08-0.13h-0.01v0.16v0.45v0.67v0.83v3.9h-0.87V6.88h0.82l3.3,4.44c0.14,0.19,0.28,0.37,0.4,0.55
		c0.13,0.18,0.24,0.34,0.35,0.49c0.11,0.15,0.19,0.27,0.26,0.35l0.1,0.13h0.01v-0.17v-0.46v-0.66v-0.76V6.88H46.44z" fill="#FFFFFF"></path>
	<path class="innovative-0" d="M55.04,6.88v7.44h-0.82l-3.3-4.44c-0.16-0.22-0.31-0.42-0.45-0.61c-0.14-0.19-0.26-0.36-0.35-0.5
		c-0.1-0.14-0.17-0.24-0.22-0.33l-0.08-0.13h-0.01v0.16v0.45v0.67v0.83v3.9h-0.87V6.88h0.82l3.3,4.44c0.14,0.19,0.28,0.37,0.4,0.55
		c0.13,0.18,0.24,0.34,0.35,0.49c0.11,0.15,0.19,0.27,0.25,0.35l0.1,0.13h0.01v-0.17v-0.46v-0.66v-0.76V6.88H55.04z" fill="#FFFFFF"></path>
	<path class="innovative-0" d="M56.96,10.63c0-0.56,0.11-1.08,0.31-1.56s0.48-0.89,0.83-1.23c0.35-0.34,0.76-0.6,1.23-0.8
		c0.47-0.19,0.97-0.29,1.5-0.29c0.53,0,1.03,0.09,1.5,0.29c0.47,0.19,0.88,0.46,1.23,0.8c0.35,0.34,0.63,0.74,0.83,1.22
		c0.2,0.48,0.31,1,0.31,1.56c0,0.56-0.1,1.08-0.3,1.56c-0.2,0.48-0.48,0.88-0.83,1.22c-0.35,0.34-0.76,0.6-1.23,0.8
		c-0.47,0.18-0.97,0.28-1.5,0.28c-0.53,0-1.03-0.1-1.5-0.28c-0.47-0.19-0.87-0.46-1.22-0.8c-0.35-0.34-0.63-0.75-0.83-1.23
		c-0.2-0.48-0.3-1-0.3-1.56L56.96,10.63z M57.89,10.61c0,0.45,0.07,0.85,0.22,1.22c0.15,0.37,0.36,0.69,0.63,0.95
		c0.26,0.27,0.58,0.47,0.94,0.62c0.36,0.15,0.75,0.22,1.18,0.22c0.41,0,0.81-0.07,1.17-0.22c0.36-0.15,0.68-0.35,0.94-0.62
		c0.27-0.26,0.48-0.58,0.63-0.95c0.15-0.37,0.22-0.79,0.22-1.23c0-0.46-0.07-0.87-0.22-1.24c-0.15-0.37-0.36-0.69-0.63-0.96
		c-0.26-0.27-0.57-0.47-0.93-0.62c-0.36-0.15-0.76-0.22-1.17-0.22c-0.42,0-0.82,0.07-1.18,0.22c-0.36,0.15-0.67,0.35-0.94,0.62
		c-0.27,0.27-0.47,0.58-0.62,0.96c-0.15,0.37-0.22,0.79-0.22,1.24L57.89,10.61z" fill="#FFFFFF"></path>
	<path class="innovative-0" d="M73.16,6.88l-3.2,7.43h-0.88L65.9,6.89h0.94l2.24,5.32c0.05,0.14,0.11,0.28,0.16,0.41
		c0.05,0.14,0.1,0.25,0.14,0.36c0.04,0.11,0.07,0.19,0.1,0.25l0.04,0.1h0.01l0.04-0.11c0.02-0.06,0.06-0.15,0.11-0.25
		c0.04-0.11,0.09-0.23,0.14-0.37l0.15-0.4l2.25-5.32H73.16z" fill="#FFFFFF"></path>
	<path class="innovative-0" d="M79.57,12.37h-3.73l-0.83,1.94h-0.93l3.23-7.43h0.8l3.23,7.43H80.4L79.57,12.37z M79.24,11.6l-1.18-2.76
		c-0.04-0.09-0.09-0.19-0.13-0.3c-0.04-0.1-0.07-0.2-0.11-0.3c-0.03-0.1-0.06-0.17-0.09-0.22l-0.03-0.09H77.7l-0.03,0.09
		c-0.02,0.05-0.05,0.13-0.08,0.22c-0.03,0.1-0.06,0.19-0.11,0.3c-0.04,0.11-0.09,0.2-0.13,0.3l-1.18,2.76H79.24z" fill="#FFFFFF"></path>
	<polygon class="innovative-0" points="88.13,6.88 88.13,7.7 85.63,7.7 85.63,14.32 84.77,14.32 84.77,7.7 82.29,7.7 82.29,6.88 	" fill="#FFFFFF"></polygon>
	<rect x="89.88" y="6.88" class="innovative-0" width="0.87" height="7.43" fill="#FFFFFF"></rect>
	<path class="innovative-0" d="M99.69,6.88l-3.2,7.43h-0.88l-3.18-7.42h0.94l2.24,5.32c0.05,0.14,0.11,0.28,0.16,0.41
		c0.05,0.14,0.1,0.25,0.14,0.36c0.04,0.11,0.07,0.19,0.1,0.25l0.04,0.1h0.01l0.04-0.11c0.02-0.06,0.06-0.15,0.11-0.25
		c0.04-0.11,0.09-0.23,0.14-0.37l0.15-0.4l2.25-5.32H99.69z" fill="#FFFFFF"></path>
	<polygon class="innovative-0" points="106.43,13.5 106.43,14.32 101.41,14.32 101.41,6.88 106.37,6.88 106.37,7.7 102.28,7.7 102.28,9.99 
		105.56,9.99 105.56,10.77 102.28,10.77 102.28,13.5 	" fill="#FFFFFF"></polygon>
	<polygon class="innovative-0" points="41.82,24.96 41.82,25.78 36.97,25.78 36.97,18.35 37.84,18.35 37.84,24.96 	" fill="#FFFFFF"></polygon>
	<rect x="43.55" y="18.35" class="innovative-0" width="0.87" height="7.43" fill="#FFFFFF"></rect>
	<path class="innovative-0" d="M53.37,18.35l-3.2,7.44h-0.88l-3.17-7.42h0.94l2.24,5.32c0.05,0.14,0.11,0.28,0.16,0.41
		c0.05,0.14,0.09,0.25,0.14,0.36c0.04,0.11,0.07,0.19,0.1,0.25l0.04,0.1h0.01l0.04-0.11c0.02-0.06,0.06-0.15,0.11-0.26
		c0.04-0.11,0.09-0.23,0.14-0.37l0.15-0.41l2.25-5.32H53.37z" fill="#FFFFFF"></path>
	<rect x="55.08" y="18.35" class="innovative-0" width="0.87" height="7.43" fill="#FFFFFF"></rect>
	<path class="innovative-0" d="M64.56,18.35v7.44h-0.82l-3.3-4.44c-0.16-0.22-0.31-0.42-0.45-0.62c-0.14-0.19-0.26-0.36-0.35-0.5
		c-0.1-0.14-0.17-0.25-0.22-0.33l-0.08-0.13h-0.01v0.16v0.45v0.67v0.83v3.9h-0.87v-7.44h0.82l3.3,4.44c0.14,0.19,0.28,0.37,0.4,0.55
		c0.13,0.18,0.24,0.34,0.35,0.49s0.19,0.26,0.26,0.35l0.1,0.13h0.01v-0.17v-0.46v-0.66v-0.76v-3.91H64.56z" fill="#FFFFFF"></path>
	<path class="innovative-0" d="M73.11,24.68L73.1,24.7c-0.08,0.11-0.21,0.23-0.37,0.38c-0.16,0.15-0.35,0.29-0.57,0.41
		c-0.22,0.13-0.48,0.23-0.78,0.31c-0.3,0.08-0.63,0.13-0.99,0.13c-0.53,0-1.03-0.1-1.5-0.28c-0.47-0.19-0.87-0.46-1.22-0.8
		c-0.35-0.34-0.63-0.75-0.83-1.23c-0.2-0.48-0.3-1-0.3-1.56s0.11-1.08,0.31-1.56c0.2-0.48,0.48-0.89,0.83-1.23
		c0.35-0.34,0.76-0.61,1.23-0.8c0.47-0.19,0.97-0.29,1.5-0.29c0.78,0.01,1.44,0.19,2.02,0.54c0.57,0.35,1.03,0.82,1.36,1.4
		l-0.88,0.22c-0.25-0.41-0.61-0.74-1.05-0.98c-0.45-0.23-0.92-0.35-1.44-0.35c-0.42,0-0.82,0.07-1.18,0.22
		c-0.36,0.15-0.67,0.35-0.93,0.62c-0.27,0.27-0.47,0.58-0.62,0.96c-0.15,0.37-0.22,0.77-0.22,1.22c0,0.46,0.07,0.87,0.22,1.24
		c0.15,0.37,0.36,0.69,0.63,0.96c0.26,0.27,0.58,0.47,0.94,0.62c0.36,0.15,0.75,0.22,1.18,0.22c0.36,0,0.69-0.05,0.99-0.15
		c0.3-0.1,0.56-0.22,0.79-0.37c0.22-0.15,0.41-0.31,0.57-0.48c0.16-0.17,0.28-0.34,0.35-0.5v-0.93h-2.27v-0.72h3.03v3.84h-0.76
		v-0.53v-0.34v-0.18L73.11,24.68L73.11,24.68z" fill="#FFFFFF"></path>
</g>
</svg>