<svg version="1.1" id="STUDENTSLayer_1" xmlns="http://www.w3.org/2000/svg" xmlns:xlink="http://www.w3.org/1999/xlink" x="0px" y="0px" viewBox="0 0 88.73 32.09" style="enable-background:new 0 0 88.73 32.09;" xml:space="preserve" width="246"  height="89" >
<style type="text/css">
	.student-0{clip-path:url(#STUDENTSVGID_2_);fill:#FFFFFF;}
</style>
<g>
	<defs>
		<rect id="STUDENTSVGID_1_" y="0" width="88.73" height="32.09"></rect>
	<rect id="STUDENTSVGID_1_" y="0" width="88.73" height="32.09"></rect></defs>
	<clipPath id="STUDENTSVGID_2_">
		<use xlink:href="#STUDENTSVGID_1_" style="overflow:visible;"></use>
	</clipPath>
	<path class="student-0" d="M0,32.09h32.09V0H0V32.09z M10.86,19.81H9.84v-0.74v-0.2H9.83l-0.05,0.09c-0.1,0.12-0.22,0.23-0.38,0.36
		c-0.16,0.13-0.34,0.24-0.55,0.35c-0.21,0.11-0.45,0.18-0.71,0.26c-0.27,0.08-0.54,0.11-0.84,0.11c-0.53,0-1.03-0.1-1.5-0.28
		c-0.47-0.19-0.87-0.46-1.22-0.8c-0.35-0.34-0.63-0.75-0.83-1.23c-0.2-0.48-0.3-1-0.3-1.56s0.11-1.08,0.31-1.56
		c0.2-0.48,0.48-0.89,0.83-1.23c0.35-0.34,0.76-0.6,1.23-0.8c0.47-0.19,0.97-0.29,1.5-0.29c0.75,0.01,1.42,0.19,2.01,0.54
		c0.58,0.35,1.04,0.82,1.37,1.4l-1.2,0.32c-0.22-0.35-0.53-0.63-0.92-0.83c-0.39-0.2-0.81-0.3-1.25-0.3c-0.38,0-0.73,0.06-1.06,0.19
		c-0.33,0.13-0.61,0.31-0.84,0.55C5.18,14.41,5,14.69,4.87,15.02c-0.13,0.33-0.19,0.69-0.19,1.09c0,0.42,0.07,0.79,0.21,1.12
		c0.14,0.33,0.33,0.62,0.57,0.85c0.24,0.23,0.53,0.41,0.86,0.54c0.33,0.13,0.69,0.19,1.07,0.19c0.34,0,0.65-0.04,0.92-0.13
		s0.52-0.2,0.72-0.34c0.2-0.14,0.37-0.29,0.51-0.45c0.14-0.16,0.23-0.32,0.3-0.47v-0.63H7.68v-0.97h3.17V19.81z M19.97,19.8h-1.16
		v-2.83c0-0.34,0-0.67,0.01-0.99c0.01-0.32,0.02-0.59,0.03-0.84c0.01-0.25,0.01-0.44,0.02-0.58l0.01-0.22h-0.01l-0.07,0.13
		c-0.05,0.09-0.12,0.19-0.18,0.31c-0.06,0.12-0.14,0.24-0.21,0.37l-0.18,0.32l-1.44,2.5h-0.62l-1.44-2.5
		c-0.05-0.08-0.12-0.19-0.19-0.32c-0.07-0.13-0.15-0.26-0.22-0.37c-0.07-0.12-0.14-0.22-0.19-0.31l-0.07-0.13h-0.01l0.01,0.21
		c0.01,0.15,0,0.34,0,0.58c0,0.24,0.01,0.52,0.02,0.84c0.01,0.32,0.01,0.65,0.01,0.99v2.84h-1.16v-7.43h1.1l1.69,2.85
		c0.15,0.25,0.29,0.47,0.38,0.64c0.09,0.17,0.17,0.3,0.22,0.39c0.05,0.1,0.09,0.16,0.12,0.19l0.03,0.05h0.01l0.03-0.05
		c0.02-0.03,0.05-0.09,0.11-0.19c0.05-0.1,0.13-0.22,0.22-0.39c0.1-0.17,0.22-0.38,0.37-0.64l1.69-2.85H20L19.97,19.8z M28.39,19.8
		h-1.18v-3.26h-3.63v3.26H22.4v-7.43h1.18v3.08h3.63v-3.08h1.18V19.8z" fill="#FFFFFF"></path>
	<path class="student-0" d="M40.96,9.05L40.86,9.1c-0.04-0.22-0.12-0.43-0.22-0.6c-0.11-0.18-0.24-0.33-0.41-0.46
		c-0.17-0.13-0.35-0.22-0.55-0.29c-0.2-0.06-0.42-0.09-0.66-0.09c-0.49,0-0.89,0.11-1.2,0.32c-0.31,0.21-0.47,0.51-0.47,0.88
		c0,0.2,0.06,0.37,0.18,0.51c0.12,0.14,0.28,0.25,0.47,0.35c0.19,0.1,0.4,0.18,0.65,0.25c0.24,0.07,0.49,0.15,0.73,0.22
		c0.27,0.07,0.54,0.17,0.83,0.27c0.29,0.11,0.55,0.24,0.8,0.42c0.24,0.17,0.45,0.37,0.6,0.61c0.16,0.24,0.24,0.55,0.24,0.91
		c0,0.31-0.06,0.59-0.19,0.86c-0.13,0.26-0.31,0.49-0.54,0.68c-0.23,0.19-0.52,0.34-0.85,0.45c-0.33,0.09-0.7,0.15-1.12,0.15
		c-0.39,0-0.75-0.05-1.08-0.15c-0.33-0.11-0.61-0.26-0.84-0.45c-0.23-0.19-0.42-0.42-0.58-0.69c-0.16-0.27-0.26-0.55-0.32-0.86
		l0.84-0.22c0.03,0.21,0.1,0.41,0.19,0.62c0.09,0.2,0.23,0.37,0.4,0.52c0.17,0.15,0.37,0.26,0.6,0.35c0.23,0.08,0.51,0.13,0.82,0.13
		c0.55,0,0.99-0.13,1.31-0.38c0.32-0.25,0.48-0.58,0.48-0.98c0-0.27-0.07-0.49-0.22-0.66c-0.15-0.17-0.33-0.32-0.55-0.44
		c-0.22-0.12-0.48-0.21-0.75-0.29c-0.28-0.07-0.54-0.16-0.81-0.24c-0.21-0.06-0.44-0.14-0.68-0.23c-0.24-0.1-0.47-0.21-0.68-0.35
		c-0.21-0.14-0.38-0.32-0.52-0.54c-0.14-0.22-0.2-0.49-0.2-0.81c0-0.29,0.06-0.55,0.19-0.8c0.13-0.24,0.31-0.46,0.53-0.64
		c0.22-0.18,0.5-0.32,0.82-0.43c0.32-0.11,0.67-0.16,1.04-0.16c0.34,0,0.66,0.04,0.96,0.14c0.3,0.1,0.56,0.23,0.8,0.4
		c0.23,0.17,0.42,0.38,0.59,0.63c0.16,0.24,0.26,0.51,0.33,0.81L40.96,9.05z" fill="#FFFFFF"></path>
	<polygon class="student-0" points="48.92,6.99 48.92,7.81 46.42,7.81 46.42,14.43 45.56,14.43 45.56,7.81 43.08,7.81 43.08,6.99 	" fill="#FFFFFF"></polygon>
	<path class="student-0" d="M56.57,6.99l0.01,4.35c0,1.05-0.26,1.86-0.8,2.41c-0.53,0.55-1.28,0.82-2.26,0.82c-0.98,0-1.73-0.27-2.26-0.82
		c-0.53-0.55-0.8-1.36-0.8-2.41V6.99h0.87v4.36c0,1.6,0.72,2.41,2.18,2.41c1.46,0,2.19-0.81,2.19-2.41V6.99H56.57z" fill="#FFFFFF"></path>
	<path class="student-0" d="M61.99,6.99l-0.02,0.03c0.53,0,1.03,0.1,1.5,0.27c0.47,0.18,0.87,0.44,1.22,0.77
		c0.35,0.33,0.63,0.72,0.83,1.18c0.2,0.46,0.31,0.97,0.31,1.53c0,0.55-0.1,1.05-0.3,1.5c-0.2,0.45-0.47,0.83-0.81,1.15
		c-0.34,0.32-0.74,0.56-1.2,0.74c-0.46,0.18-0.94,0.26-1.47,0.26h-3.2V6.99H61.99z M62.07,13.61h-0.02c0.39,0,0.77-0.06,1.12-0.19
		c0.35-0.13,0.66-0.32,0.92-0.56c0.26-0.24,0.48-0.54,0.64-0.89c0.16-0.35,0.23-0.75,0.23-1.2c0-0.46-0.07-0.86-0.23-1.22
		c-0.16-0.36-0.37-0.67-0.64-0.92c-0.27-0.25-0.57-0.46-0.93-0.59c-0.36-0.14-0.74-0.21-1.15-0.21h-2.26v5.8H62.07z" fill="#FFFFFF"></path>
	<polygon class="student-0" points="72.86,13.61 72.86,14.43 67.84,14.43 67.84,6.99 72.8,6.99 72.8,7.81 68.71,7.81 68.71,10.1 
		71.99,10.1 71.99,10.88 68.71,10.88 68.71,13.61 	" fill="#FFFFFF"></polygon>
	<path class="student-0" d="M81.14,6.99v7.44h-0.82L77.02,10c-0.16-0.22-0.31-0.42-0.45-0.62c-0.14-0.19-0.26-0.36-0.35-0.5
		c-0.1-0.14-0.17-0.24-0.22-0.33l-0.08-0.13h-0.01v0.16v0.45V9.7v0.83v3.9h-0.87V6.99h0.82l3.3,4.44c0.14,0.19,0.28,0.37,0.4,0.55
		c0.13,0.18,0.24,0.34,0.35,0.49c0.11,0.15,0.19,0.26,0.25,0.35l0.1,0.13h0.01v-0.17v-0.46v-0.66V10.9V6.99H81.14z" fill="#FFFFFF"></path>
	<polygon class="student-0" points="88.73,6.99 88.73,7.81 86.24,7.81 86.24,14.43 85.38,14.43 85.38,7.81 82.89,7.81 82.89,6.99 	" fill="#FFFFFF"></polygon>
	<polygon class="student-0" points="41.83,25.08 41.83,25.89 36.97,25.89 36.97,18.46 37.84,18.46 37.84,25.08 	" fill="#FFFFFF"></polygon>
	<rect x="43.55" y="18.46" class="student-0" width="0.87" height="7.43" fill="#FFFFFF"></rect>
	<path class="student-0" d="M53.37,18.46l-3.2,7.43h-0.88l-3.17-7.42h0.94l2.24,5.32c0.05,0.14,0.11,0.28,0.16,0.41
		c0.05,0.14,0.1,0.25,0.14,0.36c0.04,0.11,0.07,0.19,0.1,0.26l0.04,0.1h0.01l0.04-0.11c0.02-0.06,0.06-0.15,0.11-0.25
		c0.04-0.11,0.08-0.23,0.14-0.37l0.15-0.4l2.25-5.32H53.37z" fill="#FFFFFF"></path>
	<rect x="55.08" y="18.46" class="student-0" width="0.87" height="7.43" fill="#FFFFFF"></rect>
	<path class="student-0" d="M64.56,18.46v7.44h-0.82l-3.3-4.44c-0.16-0.22-0.31-0.42-0.45-0.62c-0.14-0.19-0.26-0.36-0.35-0.5
		c-0.1-0.14-0.17-0.25-0.22-0.33l-0.08-0.13h-0.01v0.16v0.45v0.67V22v3.9h-0.87v-7.43h0.82l3.3,4.44c0.14,0.19,0.28,0.37,0.4,0.55
		c0.13,0.18,0.24,0.34,0.35,0.49c0.11,0.15,0.19,0.27,0.26,0.35l0.1,0.13h0.01v-0.17v-0.46v-0.66v-0.76v-3.91H64.56z" fill="#FFFFFF"></path>
	<path class="student-0" d="M73.11,24.79l-0.01,0.02c-0.08,0.11-0.21,0.23-0.37,0.38c-0.16,0.15-0.35,0.29-0.57,0.41
		c-0.22,0.13-0.48,0.23-0.77,0.31c-0.3,0.08-0.63,0.13-0.99,0.13c-0.53,0-1.03-0.1-1.5-0.27c-0.47-0.19-0.87-0.46-1.22-0.8
		c-0.35-0.34-0.63-0.75-0.83-1.23c-0.2-0.48-0.3-1-0.3-1.56c0-0.56,0.11-1.08,0.31-1.56c0.2-0.48,0.48-0.89,0.83-1.23
		s0.76-0.6,1.23-0.8c0.47-0.19,0.97-0.29,1.5-0.29c0.78,0.01,1.44,0.19,2.02,0.54c0.57,0.35,1.03,0.82,1.36,1.4l-0.88,0.22
		c-0.25-0.41-0.61-0.74-1.05-0.98c-0.45-0.23-0.92-0.35-1.44-0.35c-0.42,0-0.82,0.08-1.18,0.22c-0.36,0.15-0.67,0.35-0.93,0.62
		c-0.27,0.27-0.47,0.58-0.62,0.96s-0.22,0.77-0.22,1.22c0,0.46,0.07,0.87,0.22,1.24c0.15,0.37,0.36,0.69,0.63,0.96
		c0.26,0.27,0.58,0.47,0.94,0.62c0.36,0.15,0.75,0.22,1.18,0.22c0.36,0,0.69-0.05,0.99-0.15c0.3-0.1,0.56-0.22,0.79-0.37
		c0.22-0.15,0.41-0.31,0.57-0.48c0.16-0.17,0.28-0.34,0.35-0.5v-0.92h-2.27v-0.72h3.03v3.84h-0.76v-0.53v-0.34v-0.18L73.11,24.79
		L73.11,24.79z" fill="#FFFFFF"></path>
</g>
</svg>