<?xml version="1.0" standalone="no"?>
<!DOCTYPE svg PUBLIC "-//W3C//DTD SVG 20010904//EN"
 "http://www.w3.org/TR/2001/REC-SVG-20010904/DTD/svg10.dtd">
<svg version="1.0" xmlns="http://www.w3.org/2000/svg"
 width="709.000000pt" height="709.000000pt" viewBox="0 0 709.000000 709.000000"
 preserveAspectRatio="xMidYMid meet">
<metadata>
Created by potrace 1.14, written by Peter Selinger 2001-2017
</metadata>
<g transform="translate(0.000000,709.000000) scale(0.100000,-0.100000)"
fill="#000000" stroke="none">
<path d="M2076 5295 c-3 -148 -8 -817 -10 -1486 l-4 -1217 391 -6 c216 -3 885
-7 1488 -10 l1097 -3 6 691 c3 380 7 1049 9 1487 l2 797 -570 6 c-313 3 -982
7 -1486 9 l-917 3 -6 -271z m780 -890 c66 -19 140 -69 175 -118 16 -22 27 -42
25 -44 -2 -2 -27 -10 -54 -18 -50 -13 -51 -13 -79 17 -86 91 -244 99 -337 17
-72 -63 -101 -185 -67 -283 18 -51 76 -115 126 -137 129 -59 335 19 335 127
l0 34 -100 0 -100 0 0 45 0 45 150 0 150 0 0 -185 0 -185 -50 0 -50 0 0 42 0
41 -22 -20 c-66 -61 -176 -91 -270 -74 -122 21 -209 84 -260 189 -30 61 -33
74 -33 162 0 83 3 102 28 155 77 164 256 243 433 190z m630 -185 l112 -191
113 191 113 190 55 0 54 0 -6 -242 c-4 -133 -7 -288 -7 -345 l0 -103 -55 0
-55 0 7 245 c3 135 4 245 1 245 -3 0 -47 -72 -98 -161 -90 -154 -94 -160 -123
-157 -26 3 -38 18 -119 158 -49 85 -94 160 -100 165 -7 7 -8 -29 -3 -117 3
-71 3 -184 -1 -253 l-7 -125 -48 0 -49 0 0 345 0 345 53 0 52 0 111 -190z
m774 45 l0 -145 170 0 170 0 0 145 0 145 49 0 c28 0 53 -5 57 -11 3 -6 3 -161
-1 -345 l-7 -334 -56 0 -55 0 6 150 6 150 -169 0 -170 0 0 -150 0 -150 -55 0
-55 0 0 345 0 345 55 0 55 0 0 -145z"/>
<path d="M1325 1983 c-82 -43 -125 -114 -125 -208 0 -132 90 -225 218 -225 86
0 166 41 197 100 14 27 13 28 -11 34 -20 5 -30 1 -46 -20 -27 -33 -92 -63
-139 -64 -143 -1 -225 192 -126 298 66 71 188 72 251 3 21 -23 76 -29 76 -8 0
17 -57 71 -97 91 -42 21 -157 21 -198 -1z"/>
<path d="M1823 1975 c-121 -61 -158 -216 -80 -332 48 -70 102 -95 199 -91 66
3 82 7 120 33 65 46 93 104 93 190 -1 76 -14 111 -62 159 -68 69 -179 86 -270
41z m204 -51 c90 -68 104 -186 32 -269 -71 -81 -205 -72 -272 17 -41 55 -29
186 21 231 57 52 164 62 219 21z"/>
<path d="M2280 1771 l0 -221 25 0 25 0 2 170 3 169 65 -114 c40 -70 71 -115
81 -115 9 0 40 44 80 112 l64 112 3 -167 2 -167 25 0 25 0 0 220 0 220 -24 0
c-21 0 -35 -19 -96 -125 -40 -69 -75 -125 -79 -125 -3 0 -38 55 -77 123 -60
103 -75 123 -97 125 l-27 3 0 -220z"/>
<path d="M2830 1771 l0 -221 25 0 25 0 2 171 3 172 65 -117 c51 -91 69 -116
84 -114 13 2 40 40 80 110 34 59 64 107 67 108 4 0 4 -74 1 -165 l-5 -165 27
0 c25 0 26 2 26 63 0 34 3 133 7 220 l6 159 -28 -4 c-25 -3 -39 -20 -106 -131
l-76 -128 -75 128 c-63 109 -78 128 -101 131 l-27 3 0 -220z"/>
<path d="M3370 1836 c0 -165 8 -205 48 -248 34 -37 82 -51 153 -46 63 5 97 23
133 72 19 25 21 41 21 199 0 171 0 172 -22 175 -23 3 -23 3 -23 -140 0 -171
-9 -212 -53 -238 -38 -24 -106 -26 -146 -5 -48 24 -61 75 -61 240 l0 145 -25
0 -25 0 0 -154z"/>
<path d="M3870 1803 c0 -98 -3 -195 -6 -215 -6 -37 -6 -38 25 -38 l31 0 0 171
0 171 128 -176 c179 -247 182 -245 182 82 l0 182 -25 0 c-22 0 -25 -4 -26 -37
-1 -21 -4 -96 -8 -168 l-6 -129 -120 164 c-99 135 -126 166 -148 168 l-27 3 0
-178z"/>
<path d="M4370 1760 l0 -220 25 0 c25 0 25 1 25 83 0 46 3 145 7 220 l6 137
-31 0 -32 0 0 -220z"/>
<path d="M4530 1955 c0 -24 2 -25 73 -25 l73 0 -4 -195 -5 -195 25 0 c25 0 25
1 31 122 4 66 7 154 7 195 l0 73 70 0 c68 0 70 1 70 25 l0 25 -170 0 -170 0 0
-25z"/>
<path d="M4980 1837 c0 -79 -3 -178 -6 -220 l-7 -77 32 0 31 0 0 220 0 220
-25 0 -25 0 0 -143z"/>
<path d="M5177 1873 c-4 -58 -7 -157 -7 -220 l0 -113 150 0 150 0 0 25 0 25
-120 0 -120 0 0 80 0 80 95 0 c88 0 95 1 95 20 0 19 -7 20 -95 20 l-95 0 0 70
0 70 120 0 120 0 0 25 0 25 -143 0 -144 0 -6 -107z"/>
<path d="M5633 1960 c-40 -24 -53 -48 -53 -100 0 -55 30 -82 129 -115 106 -35
123 -48 119 -92 -8 -96 -160 -103 -206 -10 -14 29 -27 33 -52 17 -13 -8 -12
-15 6 -47 58 -105 250 -110 298 -8 39 81 -7 143 -136 184 -73 23 -118 53 -118
77 0 24 45 63 80 69 43 7 99 -19 117 -55 7 -14 17 -25 23 -24 5 1 17 2 25 3
38 3 -1 78 -55 106 -42 22 -138 19 -177 -5z"/>
</g>
</svg>
